<?xml version="1.0" encoding="UTF-8"?>
<svg width="144px" height="125px" viewBox="0 0 144 125" version="1.1" xmlns="http://www.w3.org/2000/svg" xmlns:xlink="http://www.w3.org/1999/xlink">
  <title>logo</title>
  <defs>
    <polygon id="path-1" points="0 0 100.334302 0 100.334302 17.3390906 0 17.3390906"></polygon>
    <linearGradient x1="0%" y1="50.0000235%" x2="100.000018%" y2="50.0000235%" id="linearGradient-3">
      <stop stop-color="#70E2FF" offset="0%"></stop>
      <stop stop-color="#D893FF" offset="100%"></stop>
    </linearGradient>
    <linearGradient x1="4.06187862e-06%" y1="50.0000046%" x2="99.9999399%" y2="50.0000046%" id="linearGradient-4">
      <stop stop-color="#93C8FF" offset="0%"></stop>
      <stop stop-color="#B6AEFF" offset="100%"></stop>
    </linearGradient>
    <linearGradient x1="-0.000146277838%" y1="49.9999966%" x2="99.9999146%" y2="49.9999966%" id="linearGradient-5">
      <stop stop-color="#B6AEFF" offset="0%"></stop>
      <stop stop-color="#93C8FF" offset="100%"></stop>
    </linearGradient>
  </defs>
  <g id="Design" stroke="none" stroke-width="1" fill="none" fill-rule="evenodd">
    <g id="demopage" transform="translate(-285.000000, -134.000000)">
      <g transform="translate(285.618888, 134.000000)">
        <g id="demo-page" transform="translate(1.737083, 111.008236)" fill="#3E4147" fill-rule="nonzero">
          <path d="M0,13.1037655 L4.33754687,13.1037655 C8.49284387,13.1037655 11.0078921,10.4611424 11.0078921,6.6521202 C11.0078921,2.82487296 8.38349395,0.164024882 4.28287191,0.164024882 L0,0.164024882 L0,13.1037655 Z M2.53327317,10.8256422 L2.53327317,2.44214824 L4.31932188,2.44214824 C6.67034518,2.44214824 8.32881899,4.22819695 8.32881899,6.6521202 C8.32881899,9.02136849 6.68857017,10.8256422 4.17352199,10.8256422 L2.53327317,10.8256422 Z" id="Shape"></path>
          <polygon id="Path" points="17.1454472 13.1037655 25.8023159 13.1037655 25.8023159 10.8256422 19.6787203 10.8256422 19.6787203 7.80029437 24.271417 7.80029437 24.271417 5.55862099 19.6787203 5.55862099 19.6787203 2.44214824 25.4195912 2.44214824 25.4195912 0.164024882 17.1454472 0.164024882"></polygon>
          <polygon id="Path" points="31.939871 13.1037655 34.4913692 13.1037655 34.4913692 5.08477133 34.5278192 5.08477133 37.6625169 10.6616173 39.3209907 10.6616173 42.4739134 5.10299631 42.5103634 5.10299631 42.5103634 13.1037655 45.0618616 13.1037655 45.0618616 0.164024882 42.4921384 0.164024882 38.5190913 7.52691956 38.4826413 7.52691956 34.5095942 0.164024882 31.939871 0.164024882"></polygon>
          <path d="M57.8333119,13.2677904 C61.6241091,13.2677904 64.4125321,10.5704924 64.4125321,6.63389521 C64.4125321,2.67907307 61.6241091,0 57.8333119,0 C53.9149397,0 51.2358666,2.78842299 51.2358666,6.63389521 C51.2358666,10.4793674 53.9149397,13.2677904 57.8333119,13.2677904 Z M57.8333119,10.8620922 C55.5005136,10.8620922 53.8967147,8.98491851 53.8967147,6.63389521 C53.8967147,4.28287191 55.5005136,2.40569826 57.8333119,2.40569826 C60.0567603,2.40569826 61.7334591,4.19174697 61.7334591,6.63389521 C61.7334591,9.07604345 60.0567603,10.8620922 57.8333119,10.8620922 Z" id="Shape"></path>
          <path d="M79.1297906,13.1037655 L81.6630638,13.1037655 L81.6630638,8.67509374 L83.6678123,8.67509374 C86.5109103,8.67509374 88.4245339,7.30821972 88.4245339,4.46512178 C88.4245339,1.98652357 87.0576599,0.164024882 83.9229621,0.164024882 L79.1297906,0.164024882 L79.1297906,13.1037655 Z M81.6630638,6.41519537 L81.6630638,2.44214824 L83.5220124,2.44214824 C84.9982363,2.44214824 85.7636858,3.22582267 85.7636858,4.4286718 C85.7636858,5.61329595 84.9982363,6.41519537 83.3944375,6.41519537 L81.6630638,6.41519537 Z" id="Shape"></path>
          <path d="M92.1381657,13.1037655 L94.8172388,13.1037655 L95.6920382,10.5158174 L100.649235,10.5158174 L101.542259,13.1037655 L104.221332,13.1037655 L99.4099355,0.164024882 L96.9313373,0.164024882 L92.1381657,13.1037655 Z M96.4210376,8.32881899 L98.1524114,3.26227264 L98.1888614,3.26227264 L99.9202351,8.32881899 L96.4210376,8.32881899 Z" id="Shape"></path>
          <path d="M115.152059,13.2313404 C117.138582,13.2313404 119.070431,12.5752409 120.255055,11.6275416 L120.255055,6.05069563 L114.860459,6.05069563 L114.860459,8.25591904 L117.758232,8.25591904 L117.758232,10.1513177 C116.938107,10.6616173 116.081533,10.8985421 115.152059,10.8985421 C112.728135,10.8985421 111.233686,9.03959347 111.233686,6.6521202 C111.233686,4.0094971 112.910385,2.42392325 115.042709,2.42392325 C116.464258,2.42392325 117.575982,2.97067285 118.377881,3.77257228 L120.182155,2.20522341 C118.851731,0.728999474 116.883432,0 115.042709,0 C110.996762,0 108.554613,2.86132293 108.554613,6.6521202 C108.554613,10.8074172 111.415936,13.2313404 115.152059,13.2313404 Z" id="Path"></path>
          <polygon id="Path" points="126.629535 13.1037655 135.286404 13.1037655 135.286404 10.8256422 129.162808 10.8256422 129.162808 7.80029437 133.755505 7.80029437 133.755505 5.55862099 129.162808 5.55862099 129.162808 2.44214824 134.903679 2.44214824 134.903679 0.164024882 126.629535 0.164024882"></polygon>
        </g>
        <g transform="translate(0.000000, 96.703888)" stroke="#000000" stroke-linecap="round" stroke-width="0.858">
          <g transform="translate(53.428582, 0.855486) scale(-1, 1) translate(-53.428582, -0.855486) ">
            <line x1="0" y1="0.855485594" x2="81.8851091" y2="0.855485594" id="Line-4"></line>
            <line x1="84.5952545" y1="0.855485594" x2="95.823" y2="0.855485594" id="Line-4-Copy"></line>
            <line x1="98.5331455" y1="0.855485594" x2="102.017618" y2="0.855485594" id="Line-4-Copy-2"></line>
            <line x1="104.727764" y1="0.855485594" x2="106.857164" y2="0.855485594" id="Line-4-Copy-3"></line>
          </g>
          <g transform="translate(41.426509, 0.000000)">
            <line x1="0.193581818" y1="0.855485594" x2="75.6904909" y2="0.855485594" id="Line-4"></line>
            <line x1="78.4006364" y1="0.855485594" x2="89.6283818" y2="0.855485594" id="Line-4-Copy"></line>
            <line x1="92.3385273" y1="0.855485594" x2="95.823" y2="0.855485594" id="Line-4-Copy-2"></line>
            <line x1="98.5331455" y1="0.855485594" x2="100.662545" y2="0.855485594" id="Line-4-Copy-3"></line>
          </g>
        </g>
        <g transform="translate(20.450559, 0.000000)">
          <g transform="translate(0.297755, 64.045417)">
            <mask id="mask-2" fill="white">
              <use xlink:href="#path-1"></use>
            </mask>
            <path d="M93.6425599,9.9919133 L93.6425599,17.339135 L89.4355816,17.339135 L89.4355816,9.9919133 L82.8910789,0 L87.983729,0 L91.699114,6.41640766 L95.4139034,0 L100.334302,0 L93.6425599,9.9919133 Z M75.2280601,5.31457634 C75.2280601,4.90659494 75.1417112,4.57597145 74.9684179,4.32255765 C74.7957201,4.06988483 74.5731484,3.87382258 74.3012982,3.73466729 C74.0288525,3.59625297 73.7239515,3.50214902 73.3859998,3.4530964 C73.048048,3.40404379 72.7228997,3.37988797 72.4099594,3.37988797 L70.1604215,3.37988797 L70.1604215,7.42028196 L72.1625251,7.42028196 C72.5085162,7.42028196 72.8631423,7.39212487 73.2261054,7.33492153 C73.5883242,7.27801457 73.9180877,7.17575988 74.2149493,7.02860204 C74.511662,6.88218518 74.7544811,6.66982146 74.944002,6.39225185 C75.1336719,6.11468223 75.2280601,5.75516067 75.2280601,5.31457634 L75.2280601,5.31457634 Z M75.400758,17.339135 L71.6188248,10.4576908 L70.1846885,10.4576908 L70.1846885,17.339135 L66.076416,17.339135 L66.076416,0 L72.71888,0 C73.5552734,0 74.3708239,0.0859532172 75.1665738,0.257266871 C75.961877,0.42872872 76.6754465,0.718894925 77.3071334,1.12687632 C77.9383737,1.53470951 78.4426215,2.07354727 78.8206213,2.74294499 C79.19743,3.41263911 79.3863555,4.24534795 79.3863555,5.24107152 C79.3863555,6.41640766 79.0664179,7.40486966 78.4263938,8.20438278 C77.7871142,9.00419228 76.9014424,9.57592937 75.7695273,9.91870487 L80.3213057,17.339135 L75.400758,17.339135 Z M47.6578966,17.339135 L47.6578966,0 L59.3685948,0 L59.3685948,3.52704581 L51.7168907,3.52704581 L51.7168907,6.80823578 L58.9501004,6.80823578 L58.9501004,10.163227 L51.7168907,10.163227 L51.7168907,13.7636294 L59.8113563,13.7636294 L59.8113563,17.339135 L47.6578966,17.339135 Z M36.0515615,17.339135 L31.8447321,17.339135 L25.2508021,0 L29.9748317,0 L34.0095588,12.2939776 L34.1081156,12.2939776 L38.1179802,0 L42.7683154,0 L36.0515615,17.339135 Z M16.1301245,17.339135 L20.3613698,17.339135 L20.3613698,0 L16.1301245,0 L16.1301245,17.339135 Z M0,17.339135 L0,0 L4.23124527,0 L4.23124527,13.6902728 L10.9722662,13.6902728 L10.9722662,17.339135 L0,17.339135 Z" id="Fill-1" fill="#3E4147" mask="url(#mask-2)"></path>
          </g>
          <g transform="translate(24.267020, 0.296390)">
            <path d="M0,14.6688057 L0,41.4026274 C0,49.9438578 7.03907349,56.0577991 14.7162356,56.0658016 L14.7162356,56.0658016 L14.7430336,56.0658016 C17.1883452,56.0638751 19.6969298,55.4423444 22.0634854,54.082357 L22.0634854,54.082357 L45.3226053,40.715298 C50.2135265,37.9044796 52.6658354,32.9921051 52.6795321,28.0732099 L52.6795321,28.0732099 L52.6795321,27.9887386 C52.6658354,23.0698435 50.2135265,18.1574689 45.3226053,15.3467987 L45.3226053,15.3467987 L22.0715248,1.98418556 C19.7010984,0.621975263 17.1858143,0 14.7366318,0 L14.7366318,0 C7.0502393,-0.000889171212 0,6.11809072 0,14.6688057 M5.174086,19.6809156 C7.22204384,1.03944115 22.2147448,5.64786735 38.7952236,18.0266126 L38.7952236,18.0266126 C55.3758512,30.4053578 38.6616805,39.7127575 23.5987094,47.740788 L23.5987094,47.740788 C21.0143462,49.1181142 18.7128501,49.745869 16.6857351,49.745869 L16.6857351,49.745869 C6.89763994,49.7472028 3.47762775,35.1243376 5.174086,19.6809156" id="Fill-1" fill="url(#linearGradient-3)"></path>
            <path d="M29.9435674,40.2441855 C16.1030288,47.5794034 8.49881663,41.7353256 8.49881663,28.1791695 C8.49881663,14.3993868 17.319804,8.93216941 28.6373169,15.227798 C41.1695207,22.1990485 44.9478809,32.2918827 29.9435674,40.2441855 M38.7952236,18.0266126 C22.2147448,5.64786735 7.22204384,1.03929295 5.174086,19.6809156 C3.12627703,38.3226865 8.53573823,55.7689666 23.5987094,47.740788 C38.6616805,39.7127575 55.3758512,30.405506 38.7952236,18.0266126" id="Fill-4" fill="url(#linearGradient-4)" opacity="0.667419434"></path>
            <path d="M23.6552828,38.0749041 C18.0836941,38.0749041 13.5670508,33.5791062 13.5670508,28.0329008 C13.5670508,22.4868436 18.0836941,17.9908975 23.6552828,17.9908975 C29.2268715,17.9908975 33.7435148,22.4868436 33.7435148,28.0329008 C33.7435148,33.5791062 29.2268715,38.0749041 23.6552828,38.0749041 M28.6373169,15.227798 C17.319804,8.93216941 8.49881663,14.3993868 8.49881663,28.1791695 C8.49881663,41.7353256 16.1030288,47.5794034 29.9435674,40.2441855 C44.9478809,32.2918827 41.1695207,22.1990485 28.6373169,15.227798" id="Fill-7" fill="url(#linearGradient-5)" opacity="0.331340245"></path>
          </g>
        </g>
      </g>
    </g>
  </g>
</svg>
