<?xml version="1.0" encoding="utf-8"?>
<!-- Generator: Adobe Illustrator 26.0.1, SVG Export Plug-In . SVG Version: 6.00 Build 0)  -->
<svg version="1.1" id="Layer_1" xmlns="http://www.w3.org/2000/svg" xmlns:xlink="http://www.w3.org/1999/xlink" x="0px" y="0px"
	 viewBox="0 0 24 24" style="enable-background:new 0 0 24 24;" xml:space="preserve">
<style type="text/css">
	.st0{fill-rule:evenodd;clip-rule:evenodd;fill:url(#SVGID_1_);}
	
		.st1{opacity:0.66;fill-rule:evenodd;clip-rule:evenodd;fill:url(#SVGID_00000010295149540749591590000008393871769711821189_);enable-background:new    ;}
	
		.st2{opacity:0.33;fill-rule:evenodd;clip-rule:evenodd;fill:url(#SVGID_00000089565956020878768380000002380931782458309041_);enable-background:new    ;}
</style>
<linearGradient id="SVGID_1_" gradientUnits="userSpaceOnUse" x1="1.1445" y1="-187.9991" x2="23.1985" y2="-187.9991" gradientTransform="matrix(1 0 0 -1 0 -176)">
	<stop  offset="0" style="stop-color:#71E3FF"/>
	<stop  offset="1" style="stop-color:#D994FF"/>
</linearGradient>
<path class="st0" d="M20.1,6.7L10.4,1C6.3-1.3,1.1,1.6,1.1,6.4v11.2c0,4.7,5.1,7.7,9.2,5.3l9.7-5.6C24.2,15,24.2,9,20.1,6.7z
	 M11,20.3c-6.3,3.4-8.6-4-7.7-11.8c0.9-7.8,7.1-5.9,14.1-0.7C24.3,13,17.3,16.9,11,20.3z"/>
<linearGradient id="SVGID_00000181799122204915623260000014567859666269245827_" gradientUnits="userSpaceOnUse" x1="3.136" y1="-188.1822" x2="20.2656" y2="-188.1822" gradientTransform="matrix(1 0 0 -1 0 -176)">
	<stop  offset="0" style="stop-color:#94C9FF"/>
	<stop  offset="1" style="stop-color:#B6AEFF"/>
</linearGradient>
<path style="opacity:0.66;fill-rule:evenodd;clip-rule:evenodd;fill:url(#SVGID_00000181799122204915623260000014567859666269245827_);enable-background:new    ;" d="
	M17.4,7.8C10.4,2.6,4.2,0.6,3.3,8.5C2.5,16.3,4.7,23.7,11,20.3C17.3,16.9,24.3,13,17.4,7.8z M13.7,17.1c-5.8,3.1-9,0.6-9-5.1
	c0-5.8,3.7-8.1,8.4-5.4C18.4,9.5,20,13.8,13.7,17.1z"/>
<linearGradient id="SVGID_00000028316371704654791180000010450370821133733769_" gradientUnits="userSpaceOnUse" x1="4.7022" y1="-187.9982" x2="17.7674" y2="-187.9982" gradientTransform="matrix(1 0 0 -1 0 -176)">
	<stop  offset="0" style="stop-color:#B6AEFF"/>
	<stop  offset="1" style="stop-color:#94C9FF"/>
</linearGradient>
<path style="opacity:0.33;fill-rule:evenodd;clip-rule:evenodd;fill:url(#SVGID_00000028316371704654791180000010450370821133733769_);enable-background:new    ;" d="
	M13.1,6.6C8.4,4,4.7,6.3,4.7,12.1c0,5.7,3.2,8.2,9,5.1C20,13.8,18.4,9.5,13.1,6.6z M11,16.2c-1.1,0-2.2-0.4-3-1.2
	c-0.8-0.8-1.2-1.9-1.2-3c0-1.1,0.4-2.2,1.2-3s1.9-1.2,3-1.2c1.1,0,2.2,0.4,3,1.2c0.8,0.8,1.2,1.9,1.2,3c0,1.1-0.4,2.2-1.2,3
	C13.2,15.8,12.2,16.2,11,16.2L11,16.2z"/>
</svg>
